<svg height="569pt" viewBox="-29 0 569 569.27487" width="569pt" xmlns="http://www.w3.org/2000/svg"><path d="m398.417969 322.429688c5.238281 0 9.480469-4.246094 9.480469-9.484376v-75.867187c0-5.238281-4.242188-9.484375-9.480469-9.484375h-284.507813c-5.234375 0-9.480468 4.246094-9.480468 9.484375v75.867187c0 5.238282 4.246093 9.484376 9.480468 9.484376h28.453125v18.964843h-28.453125c-5.234375 0-9.480468 4.246094-9.480468 9.484375v75.867188c0 5.238281 4.246093 9.484375 9.480468 9.484375h28.453125v18.96875h-28.453125c-5.234375 0-9.480468 4.246093-9.480468 9.480469v75.871093c0 5.234375 4.246093 9.480469 9.480468 9.480469h28.453125v18.96875h18.964844v-18.96875h189.671875v18.96875h18.964844v-18.96875h28.449218c5.238282 0 9.484376-4.246094 9.484376-9.480469v-75.871093c0-5.234376-4.246094-9.480469-9.484376-9.480469h-28.449218v-18.96875h28.453125c5.238281 0 9.480469-4.246094 9.480469-9.484375v-75.867188c0-5.238281-4.242188-9.484375-9.480469-9.484375h-28.453125v-18.964843zm-275.023438-75.867188h265.539063v56.898438h-265.539063zm265.539063 227.601562v56.902344h-265.539063v-56.902344zm-37.933594-18.964843h-189.671875v-18.96875h189.671875zm37.933594-94.835938v56.902344h-265.539063v-56.902344zm-37.933594-18.96875h-189.671875v-18.964843h189.671875zm0 0"/><path d="m438.417969 265.527344h-11.550781v18.96875h11.550781c40.433593.011718 73.222656-32.753906 73.238281-73.1875.015625-40.4375-32.753906-73.226563-73.1875-73.238282-.015625 0-.03125 0-.050781 0h-12.554688c.390625-3.910156.589844-7.832031.585938-11.761718-.722657-70.476563-58.441407-127.023438-128.921875-126.3007815-42.945313.4414065-82.789063 22.4531255-106.019532 58.5703125-49.605468-17.59375-104.082031 8.359375-121.675781 57.964844-2.53125 7.132812-4.203125 14.546875-4.976562 22.078125-40.148438 4.671875-68.90625 41.007812-64.234375 81.152344 4.320312 37.125 35.917968 65.027343 73.289062 64.722656h11.550782v-18.96875h-11.550782c-29.960937.015625-54.257812-24.261719-54.269531-54.21875-.015625-29.960938 24.257813-54.257813 54.21875-54.273438h.050781c5.238282 0 9.484375-4.242187 9.484375-9.480468.449219-42.140626 34.976563-75.933594 77.117188-75.484376 10.71875.113282 21.296875 2.488282 31.042969 6.964844 4.511718 2.058594 9.847656.292969 12.242187-4.050781 29.058594-52.496094 95.171875-71.492187 147.667969-42.433594 34.167968 18.914063 55.554687 54.710938 56.019531 93.761719-.027344 6.550781-.660156 13.082031-1.898437 19.515625-.953126 5.152344 2.449218 10.097656 7.601562 11.050781.566406.105469 1.144531.15625 1.722656.15625h23.488282c29.960937 0 54.246093 24.289063 54.246093 54.246094 0 29.960938-24.285156 54.246094-54.246093 54.246094zm0 0"/><path d="m351 493.132812h18.964844v18.964844h-18.964844zm0 0"/><path d="m313.066406 493.132812h18.964844v18.964844h-18.964844zm0 0"/><path d="m275.132812 493.132812h18.964844v18.964844h-18.964844zm0 0"/><path d="m142.363281 493.132812h18.964844v18.964844h-18.964844zm0 0"/><path d="m351 379.328125h18.964844v18.96875h-18.964844zm0 0"/><path d="m313.066406 379.328125h18.964844v18.96875h-18.964844zm0 0"/><path d="m275.132812 379.328125h18.964844v18.96875h-18.964844zm0 0"/><path d="m142.363281 379.328125h18.964844v18.96875h-18.964844zm0 0"/><path d="m351 265.527344h18.964844v18.96875h-18.964844zm0 0"/><path d="m313.066406 265.527344h18.964844v18.96875h-18.964844zm0 0"/><path d="m275.132812 265.527344h18.964844v18.96875h-18.964844zm0 0"/><path d="m142.363281 265.527344h18.964844v18.96875h-18.964844zm0 0"/></svg>