<?xml version="1.0" encoding="iso-8859-1"?>
<!-- Generator: Adobe Illustrator 19.0.0, SVG Export Plug-In . SVG Version: 6.00 Build 0)  -->
<svg version="1.1" id="Capa_1" xmlns="http://www.w3.org/2000/svg" xmlns:xlink="http://www.w3.org/1999/xlink" x="0px" y="0px" viewBox="0 0 512 512" xml:space="preserve">
<g>
	<g>
		<path d="M258,450.37c-5.521,0-10,4.489-10,10c0,5.52,4.479,10,10,10c5.51,0,10-4.48,10-10C268,454.859,263.51,450.37,258,450.37z"/>
	</g>
</g>
<g>
	<g>
		<path d="M270.25,115.854h-28.583c-5.522,0-10,4.478-10,10c0,5.522,4.478,10,10,10h28.583c5.522,0,10-4.478,10-10
			C280.25,120.332,275.772,115.854,270.25,115.854z"/>
	</g>
</g>
<g>
	<g>
		<path d="M270.25,155.976h-28.583c-5.522,0-10,4.478-10,10c0,5.522,4.478,10,10,10h28.583c5.522,0,10-4.478,10-10
			C280.25,160.454,275.772,155.976,270.25,155.976z"/>
	</g>
</g>
<g>
	<g>
		<path d="M429,357.027c5.522,0,10-4.478,10-10v-48.373h63c5.522,0,10-4.478,10-10v-40.122c0-5.522-4.478-10-10-10h-0.667V134.599
			c0-5.522-4.478-10-10-10H355c-5.522,0-10,4.478-10,10v103.934c-5.522,0-10,4.478-10,10v40.122c0,5.522,4.478,10,10,10h74v38.373
			h-74c-5.522,0-10,4.478-10,10v61.719h-69V216.098h45.125c5.522,0,10-4.478,10-10V10c0-5.522-4.478-10-10-10h-110.25
			c-5.522,0-10,4.478-10,10v196.098c0,5.522,4.478,10,10,10H246v192.648h-71v-61.719c0-5.522-4.478-10-10-10H91v-38.373h77
			c5.522,0,10-4.478,10-10v-40.122c0-5.522-4.478-10-10-10h-0.667V134.599c0-5.522-4.478-10-10-10H21c-5.522,0-10,4.478-10,10
			v103.934c-5.522,0-10,4.478-10,10v40.122c0,5.522,4.478,10,10,10h60v48.373c0,5.522,4.478,10,10,10h74v51.719h-49
			c-5.522,0-10,4.478-10,10v31.624H10c-5.51,0-10,4.489-10,10c0,5.52,4.49,10,10,10h86V502c0,5.522,4.478,10,10,10h300
			c5.522,0,10-4.478,10-10v-31.63h86c5.51,0,10-4.48,10-10c0-5.511-4.49-10-10-10h-86v-31.624c0-5.522-4.478-10-10-10h-51v-51.719
			H429z M365,144.599h116.333v93.934H365V144.599z M355,278.654v-20.122h136.333H492v20.122H355z M31,144.599h116.333v93.934H31
			V144.599z M21,278.654v-20.122h136.333H158v20.122H21z M210.875,196.098V20h90.25v176.098H210.875z M396,428.746v21.624h-98
			c-5.521,0-10,4.489-10,10c0,5.52,4.479,10,10,10h98V492H116v-21.63h102c5.51,0,10-4.48,10-10c0-5.511-4.49-10-10-10H116v-21.624
			H396z"/>
	</g>
</g>
<g>
	<g>
		<circle cx="255.96" cy="50.792" r="10"/>
	</g>
</g>
<g>
</g>
<g>
</g>
<g>
</g>
<g>
</g>
<g>
</g>
<g>
</g>
<g>
</g>
<g>
</g>
<g>
</g>
<g>
</g>
<g>
</g>
<g>
</g>
<g>
</g>
<g>
</g>
<g>
</g>
</svg>
