<svg height="569pt" viewBox="-38 0 569 569.308" width="569pt" xmlns="http://www.w3.org/2000/svg"><path d="m.132812 322.417969c-.011718 136.171875 110.363282 246.566406 246.535157 246.582031 136.167969.011719 246.566406-110.363281 246.578125-246.535156.011718-122.449219-89.84375-226.351563-211.015625-244.003906 7.609375-8.554688 11.832031-19.597657 11.875-31.046876 0-26.1875-21.230469-47.414062-47.414063-47.414062-26.1875 0-47.417968 21.226562-47.417968 47.414062.042968 11.449219 4.265624 22.492188 11.875 31.046876-121.078126 17.789062-210.851563 121.582031-211.015626 243.957031zm218.109376-275.003907c0-15.710937 12.734374-28.449218 28.449218-28.449218 15.710938 0 28.445313 12.738281 28.445313 28.449218 0 15.710938-12.734375 28.449219-28.445313 28.449219-15.714844 0-28.449218-12.738281-28.449218-28.449219zm28.449218 47.414063c125.695313 0 227.589844 101.894531 227.589844 227.589844 0 125.695312-101.894531 227.59375-227.589844 227.59375-125.695312 0-227.59375-101.898438-227.59375-227.59375.148438-125.632813 101.957032-227.445313 227.59375-227.589844zm0 0"/><path d="m246.691406 521.5625c109.980469 0 199.140625-89.160156 199.140625-199.144531 0-109.980469-89.160156-199.140625-199.140625-199.140625-109.984375 0-199.144531 89.160156-199.144531 199.140625.125 109.933593 89.210937 199.019531 199.144531 199.144531zm0-379.320312c99.507813 0 180.175782 80.667968 180.175782 180.175781 0 99.511719-80.667969 180.175781-180.175782 180.175781-99.511718 0-180.175781-80.664062-180.175781-180.175781.109375-99.460938 80.710937-180.066407 180.175781-180.175781zm0 0"/><path d="m185.648438 331.902344-51.5 90.085937c-2.644532 4.523438-1.125 10.332031 3.398437 12.972657 2.957031 1.730468 6.617187 1.730468 9.574219 0l90.085937-51.5v100.167968h18.964844v-111.007812l17.382813-9.929688 80.425781 80.425782 13.410156-13.417969-80.425781-80.414063 9.929687-17.382812h101.523438v-18.964844h-90.6875l51.503906-90.089844c2.644531-4.519531 1.121094-10.328125-3.398437-12.972656-2.957032-1.730469-6.617188-1.730469-9.574219 0l-90.089844 51.503906v-100.167968h-18.964844v111.007812l-17.382812 9.925781-80.425781-80.425781-13.40625 13.421875 80.425781 80.414063-9.929688 17.382812h-101.523437v18.964844zm139.863281-88.304688-57.324219 100.320313-100.320312 57.324219 57.324218-100.320313zm0 0"/><path d="m237.207031 312.9375h18.964844v18.964844h-18.964844zm0 0"/></svg>