<svg height="569pt" viewBox="0 -76 569.285 569" width="569pt" xmlns="http://www.w3.org/2000/svg"><path d="m559.515625 341.503906h-18.964844v-293.984375c-.03125-26.175781-21.242187-47.382812-47.417969-47.414062h-417.265624c-26.175782.03125-47.386719 21.242187-47.417969 47.414062v293.984375h-18.964844c-5.238281 0-9.484375 4.246094-9.484375 9.484375v28.449219c0 20.949219 16.984375 37.933594 37.933594 37.933594h493.132812c20.949219 0 37.933594-16.984375 37.933594-37.933594v-28.449219c0-5.238281-4.246094-9.484375-9.484375-9.484375zm-512.097656-293.984375c0-15.710937 12.734375-28.449219 28.449219-28.449219h417.265624c15.710938 0 28.449219 12.738282 28.449219 28.449219v293.984375h-18.964843v-293.984375c0-5.238281-4.246094-9.480469-9.484376-9.480469h-417.265624c-5.238282 0-9.484376 4.242188-9.484376 9.480469v293.984375h-18.964843zm436.230469 293.984375h-141.128907c-10.101562-.03125-19.339843 5.679688-23.824219 14.726563-1.292968 2.605469-3.953124 4.25-6.863281 4.238281h-54.664062c-2.90625.011719-5.570313-1.632812-6.863281-4.238281-4.484376-9.046875-13.722657-14.757813-23.824219-14.726563h-141.128907v-284.5h398.296876zm66.386718 37.933594c0 10.476562-8.492187 18.964844-18.96875 18.964844h-493.132812c-10.476563 0-18.96875-8.488282-18.96875-18.964844v-18.964844h207.515625c2.910156-.011718 5.574219 1.632813 6.867187 4.238282 4.484375 9.046874 13.722656 14.757812 23.820313 14.726562h54.664062c10.097657.03125 19.335938-5.679688 23.820313-14.726562 1.292968-2.605469 3.957031-4.25 6.867187-4.238282h207.515625zm0 0"/><path d="m338.625 168.027344-94.832031 94.832031-13.414063-13.410156 94.832032-94.832031zm0 0"/><path d="m291.207031 158.546875-56.898437 56.898437-13.410156-13.410156 56.898437-56.898437zm0 0"/><path d="m348.109375 215.449219-56.898437 56.894531-13.410157-13.410156 56.898438-56.898438zm0 0"/></svg>