<svg height="569pt" viewBox="-19 0 569 569.286" width="569pt" xmlns="http://www.w3.org/2000/svg"><path d="m.132812 9.484375v550.03125c0 5.238281 4.246094 9.484375 9.484376 9.484375h37.933593c5.234375 0 9.480469-4.246094 9.480469-9.484375v-28.449219h75.867188v28.449219c0 5.238281 4.246093 9.484375 9.484374 9.484375h75.867188c5.238281 0 9.484375-4.246094 9.484375-9.484375v-28.449219h75.867187v28.449219c0 5.238281 4.246094 9.484375 9.480469 9.484375h75.867188c5.238281 0 9.484375-4.246094 9.484375-9.484375v-28.449219h75.867187v28.449219c0 5.238281 4.246094 9.484375 9.484375 9.484375h37.929688c5.238281 0 9.484375-4.246094 9.484375-9.484375v-550.03125c0-5.238281-4.246094-9.484375-9.484375-9.484375h-512.097656c-5.238282 0-9.484376 4.246094-9.484376 9.484375zm341.402344 265.53125v237.082031h-151.734375v-237.082031zm-151.734375-18.964844v-237.085937h151.734375v237.085937zm322.433594 256.046875h-151.734375v-237.082031h151.734375zm-341.402344 0h-151.730469v-237.082031h151.730469zm-132.765625 37.9375h-18.964844v-18.96875h18.964844zm113.800782-18.96875h18.964843v18.96875h-18.964843zm56.898437 18.96875h-18.964844v-18.96875h18.964844zm113.800781-18.96875h18.96875v18.96875h-18.96875zm56.902344 18.96875h-18.96875v-18.96875h18.96875zm132.765625 0h-18.964844v-18.96875h18.964844zm0-293.984375h-151.734375v-237.085937h151.734375zm-341.402344-237.085937v237.085937h-151.730469v-237.085937zm0 0"/><path d="m227.734375 47.417969h75.867187v18.964843h-75.867187zm0 0"/><path d="m227.734375 85.351562h75.867187v18.964844h-75.867187zm0 0"/><path d="m208.765625 161.21875h18.96875v56.898438h-18.96875zm0 0"/><path d="m208.765625 123.28125h18.96875v18.96875h-18.96875zm0 0"/><path d="m57.035156 47.417969h75.867188v18.964843h-75.867188zm0 0"/><path d="m57.035156 85.351562h75.867188v18.964844h-75.867188zm0 0"/><path d="m38.066406 161.21875h18.96875v56.898438h-18.96875zm0 0"/><path d="m38.066406 123.28125h18.96875v18.96875h-18.96875zm0 0"/><path d="m398.433594 47.417969h75.867187v18.964843h-75.867187zm0 0"/><path d="m398.433594 85.351562h75.867187v18.964844h-75.867187zm0 0"/><path d="m379.46875 161.21875h18.964844v56.898438h-18.964844zm0 0"/><path d="m379.46875 123.28125h18.964844v18.96875h-18.964844zm0 0"/><path d="m227.734375 303.464844h75.867187v18.96875h-75.867187zm0 0"/><path d="m227.734375 341.402344h75.867187v18.964844h-75.867187zm0 0"/><path d="m208.765625 417.265625h18.96875v56.902344h-18.96875zm0 0"/><path d="m208.765625 379.332031h18.96875v18.96875h-18.96875zm0 0"/><path d="m57.035156 303.464844h75.867188v18.96875h-75.867188zm0 0"/><path d="m57.035156 341.402344h75.867188v18.964844h-75.867188zm0 0"/><path d="m38.066406 417.265625h18.96875v56.902344h-18.96875zm0 0"/><path d="m38.066406 379.332031h18.96875v18.96875h-18.96875zm0 0"/><path d="m398.433594 303.464844h75.867187v18.96875h-75.867187zm0 0"/><path d="m398.433594 341.402344h75.867187v18.964844h-75.867187zm0 0"/><path d="m379.46875 417.265625h18.964844v56.902344h-18.964844zm0 0"/><path d="m379.46875 379.332031h18.964844v18.96875h-18.964844zm0 0"/></svg>