<svg height="569pt" viewBox="0 0 569.286 569" width="569pt" xmlns="http://www.w3.org/2000/svg"><path d="m559.515625.144531h-550.03125c-5.238281 0-9.484375 4.246094-9.484375 9.480469v37.933594c0 5.238281 4.246094 9.484375 9.484375 9.484375h18.964844v331.917969h-18.964844v18.964843h265.53125v70.792969l-109.578125 73.023438c-4.359375 2.90625-5.535156 8.796874-2.628906 13.152343 2.90625 4.359375 8.796875 5.535157 13.15625 2.628907l108.535156-72.351563 108.535156 72.359375c4.359375 2.90625 10.25 1.730469 13.15625-2.628906 2.90625-4.355469 1.730469-10.246094-2.628906-13.152344l-109.578125-73.03125v-70.792969h265.53125v-18.964843h-18.964844v-331.917969h18.964844c5.238281 0 9.484375-4.246094 9.484375-9.484375v-37.933594c0-5.234375-4.246094-9.480469-9.484375-9.480469zm-37.933594 388.816407h-474.164062v-331.917969h474.164062zm28.453125-350.882813h-531.070312v-18.96875h531.070312zm0 0"/><path d="m331.917969 211.5c.265625 2.816406 1.777343 5.371094 4.125 6.960938l102.085937 69.140624c4.335938 2.933594 10.226563 1.800782 13.164063-2.53125 3.726562-5.492187 7.039062-11.261718 9.910156-17.25l3.476563 2.597657v23.710937h18.96875v-28.453125c0-2.984375-1.40625-5.792969-3.792969-7.585937l-11.484375-8.609375c14.34375-46.972657 1.617187-98.027344-33.097656-132.765625-3.703126-3.703125-9.707032-3.703125-13.410157 0l-87.167969 87.171875c-2.019531 1.992187-3.039062 4.785156-2.777343 7.613281zm96.351562-74.390625c23.488281 27.621094 32.28125 64.839844 23.640625 100.050781l-9.984375-7.519531-11.382812 15.171875 15.023437 11.265625c-1.476562 3.511719-3.125 6.941406-4.953125 10.28125l-84.398437-57.175781zm0 0"/><path d="m181.464844 134.695312c-46.210938 56.894532-37.542969 140.480469 19.355468 186.691407 56.898438 46.210937 140.480469 37.542969 186.691407-19.355469 2.433593-2.996094 4.738281-6.101562 6.902343-9.296875 2.941407-4.332031 1.820313-10.230469-2.511718-13.175781-.003906-.003906-.007813-.003906-.011719-.007813l-92.566406-62.703125 79.0625-79.054687c3.703125-3.703125 3.703125-9.707031 0-13.410157-50.335938-50.464843-131.597657-52.011718-183.816407-3.496093l-17.933593-14.347657c-1.683594-1.347656-3.777344-2.082031-5.9375-2.078124h-28.449219v18.964843h25.121094zm112.519531 60.671876v-90.519532c23.59375 1.917969 45.988281 11.207032 64.011719 26.554688zm-18.96875-90.507813v113.402344c.011719.863281.140625 1.726562.382813 2.558593.085937.265626.1875.523438.300781.777344.199219.542969.449219 1.066406.742187 1.566406.160156.261719.339844.515626.53125.757813.328125.445313.699219.855469 1.109375 1.234375.226563.207031.453125.414062.699219.605469.125.125.257812.242187.398438.351562l93.886718 63.59375c-39.230468 49.054688-110.792968 57.015625-159.84375 17.789063-49.054687-39.226563-57.019531-110.789063-17.789062-159.84375.285156-.359375.578125-.71875.871094-1.078125l15.882812 12.707031 11.855469-14.8125-14.554688-11.636719c18.261719-16.128906 41.242188-25.941406 65.527344-27.972656zm0 0"/><path d="m66.382812 85.492188h56.902344v18.96875h-56.902344zm0 0"/><path d="m66.382812 123.425781h56.902344v18.96875h-56.902344zm0 0"/><path d="m66.382812 313.09375h56.902344v18.964844h-56.902344zm0 0"/><path d="m66.382812 351.027344h56.902344v18.964844h-56.902344zm0 0"/><path d="m445.71875 313.09375h56.898438v18.964844h-56.898438zm0 0"/><path d="m445.71875 351.027344h56.898438v18.964844h-56.898438zm0 0"/></svg>