<?xml version="1.0" encoding="iso-8859-1"?>
<!-- Generator: Adobe Illustrator 19.0.0, SVG Export Plug-In . SVG Version: 6.00 Build 0)  -->
<svg version="1.1" id="Capa_1" xmlns="http://www.w3.org/2000/svg" xmlns:xlink="http://www.w3.org/1999/xlink" x="0px" y="0px" viewBox="0 0 512 512" xml:space="preserve">
<g>
	<g>
		<path d="M350.881,208.499h-54.32c-5.51,0-10,4.49-10,10s4.49,10,10,10h54.32c5.51,0,10-4.49,10-10
			S356.391,208.499,350.881,208.499z"/>
	</g>
</g>
<g>
	<g>
		<path d="M216.562,208.499h-55c-5.51,0-10,4.49-10,10s4.49,10,10,10h55c5.52,0,10-4.49,10-10S222.082,208.499,216.562,208.499z"/>
	</g>
</g>
<g>
	<g>
		<path d="M256.562,208.499c-5.51,0-10,4.49-10,10s4.49,10,10,10c5.52,0,10-4.49,10-10S262.082,208.499,256.562,208.499z"/>
	</g>
</g>
<g>
	<g>
		<path d="M10.003,342.079c-5.52,0-10,4.479-10,10c0,5.51,4.48,10,10,10c5.51,0,10-4.49,10-10
			C20.003,346.559,15.513,342.079,10.003,342.079z"/>
	</g>
</g>
<g>
	<g>
		<path d="M140.953,286.637c-5.523,0-10,4.478-10,10V334.8c0,5.522,4.477,10,10,10s10-4.478,10-10v-38.163
			C150.953,291.115,146.476,286.637,140.953,286.637z"/>
	</g>
</g>
<g>
	<g>
		<path d="M502,342.079c-5.52,0-10,4.479-10,10c0,5.51,4.48,10,10,10c5.51,0,10-4.49,10-10C512,346.559,507.51,342.079,502,342.079z
			"/>
	</g>
</g>
<g>
	<g>
		<path d="M511.823,183.804c0-5.341-4.197-9.739-9.532-9.989l-204.982-9.604l-3.249-26.783
			c15.844-12.368,26.831-35.37,26.831-57.439c0-36.23-28.985-79.988-64.98-79.988c-35.995,0-64.98,43.758-64.98,79.988
			c0,22.069,10.988,45.071,26.831,57.439l-3.249,26.783L9.532,173.814C4.197,174.064,0,178.463,0,183.804l0.003,128.275
			c0,5.51,4.48,9.989,10,9.989c5.51,0,10-4.479,10-9.989v-61.771l32.107,4.513v42.002c0,5.522,4.477,10,10,10s10-4.478,10-10
			v-39.191l141.586,19.902l4.404,138.781h-77.147c-5.523,0-10,4.478-10,10c0,24.515,36.999,46.498,87.469,52.845v22.839
			c0,5.522,4.477,10,10,10h54.98c5.523,0,10-4.478,10-10V479.16c50.469-6.347,87.469-28.33,87.469-52.845c0-5.522-4.477-10-10-10
			h-77.147l4.404-138.781l141.76-19.927v39.216c0,5.522,4.477,10,10,10s10-4.478,10-10v-42.027L492,250.282v61.797
			c0,5.51,4.48,9.989,10,9.989c5.51,0,10-4.479,10-9.989L511.823,183.804z M210.931,79.987c0-26.193,21.812-59.988,44.98-59.988
			c23.168,0,44.98,33.795,44.98,59.988c0,17.636-9.673,36.533-22.499,43.957c-3.465,2.006-5.4,5.885-4.918,9.859l3.639,30H234.71
			l3.639-30c0.482-3.975-1.453-7.854-4.918-9.859C220.604,116.52,210.931,97.623,210.931,79.987z M354.203,436.316
			c-11.017,9.54-35.462,20.79-71.652,23.881c-5.174,0.442-9.149,4.771-9.149,9.964v21.838h-34.98v-21.838
			c0-5.193-3.975-9.521-9.149-9.964c-36.191-3.091-60.636-14.342-71.653-23.882c0,0,70.666,0,70.802,0
			c5.566,0,10.171-4.768,9.995-10.317l-4.671-147.194h44.332c0,0-4.664,146.991-4.671,147.194
			c-0.176,5.556,4.449,10.318,9.995,10.318H354.203z M491.823,230.111L287.7,258.803h-63.578L20,230.111v-36.766l203.657-9.542
			h64.509l203.657,9.542V230.111z"/>
	</g>
</g>
<g>
	<g>
		<path d="M371.044,286.637c-5.523,0-10,4.478-10,10V334.8c0,5.522,4.477,10,10,10s10-4.478,10-10v-38.163
			C381.044,291.114,376.567,286.637,371.044,286.637z"/>
	</g>
</g>
<g>
</g>
<g>
</g>
<g>
</g>
<g>
</g>
<g>
</g>
<g>
</g>
<g>
</g>
<g>
</g>
<g>
</g>
<g>
</g>
<g>
</g>
<g>
</g>
<g>
</g>
<g>
</g>
<g>
</g>
</svg>
